<svg version="1.1" id="Layer_1" xmlns="http://www.w3.org/2000/svg" xmlns:xlink="http://www.w3.org/1999/xlink" x="0px" y="0px" width="100%" viewBox="0 0 176 189" enable-background="new 0 0 176 189" xml:space="preserve">
  
  <!-- Right leaf with stem -->
  <path fill="#8EC63E" opacity="1.000000" stroke="none" d="M97,187 C97,176 97,166 97,157 C97,153 97,149 98,145 C99,141 101,138 106,138 C110,137 115,137 120,136 C127,135 134,133 138,131 C145,127 151,122 156,116 C162,108 168,98 172,87 C174,82 173,80 170,79 C159,79 148,78 138,78 C131,79 123,80 117,83 C100,90 94,104 93,121 C92,139 92,157 91,176 C91,179 90,183 90,187 C93,187 95,187 97,187 z"/>
  
  <!-- Top stem -->
  <path fill="#2F5A2C" opacity="1.000000" stroke="none" d="M94.610336,94.657318 C90.832848,98.360725 87.402397,97.445709 83.822639,94.919022 C72.083344,86.633102 63.531837,76.198250 62.184704,61.368252 C61.371731,52.418621 63.733971,43.779354 67.736839,35.895176 C72.533577,26.447371 78.156403,17.417578 83.470032,8.234854 C84.466202,6.513332 85.690704,4.923944 87.674919,1.997902 C92.982811,9.358562 97.380028,14.878664 101.139755,20.803308 C107.019188,30.068226 112.079285,39.749844 114.158722,50.734337 C117.450760,68.124245 110.923225,81.506302 97.588531,92.212875 C96.680580,92.941872 95.803154,93.708893 94.610336,94.657318 z"/>
  
  <!-- Left leaf  -->
  <path fill="#8EC63E" opacity="1.000000" stroke="none" d="M85.999985,123.812119 C86.643242,127.966415 84.973137,129.841415 81.526794,131.243729 C70.449654,135.751038 59.415901,138.853882 47.335335,135.091522 C38.826481,132.441544 31.474485,127.795036 26.640106,120.764046 C19.271893,110.047935 12.992249,98.549591 6.729782,87.120712 C3.438491,81.114174 4.224561,80.279961 11.014439,80.009033 C20.438631,79.632988 29.877384,78.876350 39.288921,79.113899 C51.554508,79.423492 63.445110,82.097923 72.837288,90.577713 C79.379379,96.484276 83.177063,104.408264 84.937691,113.095619 C85.617599,116.450478 85.664627,119.933586 85.999985,123.812119 z"/>
</svg>
